<svg width="28" height="28" fill="none" xmlns="http://www.w3.org/2000/svg"><g clip-path="url('#clip0_325_166')" fill="#fff"><path d="M9.625 16.517v-1.642h1.75v1.642c0 .143.018.286.053.425l.7 2.796-1.628 1.085-1.627-1.085.7-2.796a1.75 1.75 0 0 0 .052-.425Z"/><path d="M16.263 0H7a3.5 3.5 0 0 0-3.5 3.5v21A3.5 3.5 0 0 0 7 28h14a3.5 3.5 0 0 0 3.5-3.5V8.237c0-.464-.184-.909-.513-1.237L17.5.513A1.75 1.75 0 0 0 16.263 0Zm.362 6.125v-3.5l5.25 5.25h-3.5a1.75 1.75 0 0 1-1.75-1.75Zm-7-.875V3.5h-1.75V1.75H10.5V3.5h1.75v1.75H10.5V7h1.75v1.75H10.5v1.75h1.75v1.75H9.625V10.5h-1.75V8.75h1.75V7h-1.75V5.25h1.75Zm0 7.875h1.75a1.75 1.75 0 0 1 1.75 1.75v1.642l.7 2.798a1.75 1.75 0 0 1-.728 1.88l-1.627 1.084a1.75 1.75 0 0 1-1.941 0L7.9 21.194a1.75 1.75 0 0 1-.726-1.88l.7-2.797v-1.642a1.75 1.75 0 0 1 1.75-1.75Z"/></g><defs><clipPath id="clip0_325_166"><path fill="#fff" d="M0 0h28v28H0z"/></clipPath></defs></svg>