<svg width="80" height="106" fill="none" xmlns="http://www.w3.org/2000/svg"><g clip-path="url('#clip0_325_133')"><path d="M46.667 27.907V0H5C2.23 0 0 2.196 0 4.925v95.211c0 2.729 2.23 4.925 5 4.925h70c2.77 0 5-2.196 5-4.925V32.832H51.667c-2.75 0-5-2.217-5-4.925Zm15.927 43.37L42.506 90.915a3.59 3.59 0 0 1-5.008 0L17.41 71.277c-2.114-2.066-.63-5.614 2.344-5.614h13.58V49.247c0-1.814 1.491-3.283 3.333-3.283h6.666c1.842 0 3.334 1.47 3.334 3.283v16.416h13.579c2.975 0 4.458 3.548 2.348 5.614Zm15.948-49.731L58.146 1.436A5.035 5.035 0 0 0 54.604 0h-1.27v26.265H80v-1.251c0-1.293-.52-2.545-1.458-3.468Z" fill="#fff"/></g><defs><clipPath id="clip0_325_133"><path fill="#fff" d="M0 0h80v106H0z"/></clipPath></defs></svg>