<svg width="28" height="28" fill="none" xmlns="http://www.w3.org/2000/svg"><g clip-path="url('#clip0_325_200')"><path d="M11.813 0h4.374A1.31 1.31 0 0 1 17.5 1.313V10.5h4.796c.974 0 1.46 1.176.771 1.865l-8.318 8.323a1.06 1.06 0 0 1-1.493 0l-8.329-8.323c-.689-.69-.202-1.865.771-1.865H10.5V1.312A1.31 1.31 0 0 1 11.813 0ZM28 20.563v6.125A1.31 1.31 0 0 1 26.687 28H1.313A1.31 1.31 0 0 1 0 26.687v-6.125a1.31 1.31 0 0 1 1.313-1.312h8.022l2.68 2.68c1.1 1.099 2.87 1.099 3.97 0l2.68-2.68h8.023A1.31 1.31 0 0 1 28 20.563Zm-6.781 4.812c0-.602-.492-1.094-1.094-1.094-.602 0-1.094.492-1.094 1.094 0 .602.492 1.094 1.094 1.094.602 0 1.094-.492 1.094-1.094Zm3.5 0c0-.602-.492-1.094-1.094-1.094-.602 0-1.094.492-1.094 1.094 0 .602.492 1.094 1.094 1.094.602 0 1.094-.492 1.094-1.094Z" fill="#fff"/></g><defs><clipPath id="clip0_325_200"><path fill="#fff" d="M0 0h28v28H0z"/></clipPath></defs></svg>