<svg width="28" height="28" fill="none" xmlns="http://www.w3.org/2000/svg"><path d="M23.368 7.894a.874.874 0 0 1 .257.618v16.863a.874.874 0 0 1-.875.875H5.25a.874.874 0 0 1-.875-.875V2.625c0-.484.391-.875.875-.875h11.613a.88.88 0 0 1 .62.257l5.885 5.887Zm-1.761 1.02-5.146-5.146v5.146h5.146ZM8.75 13.18a.218.218 0 0 0-.219.218v1.313a.219.219 0 0 0 .219.219h10.5a.219.219 0 0 0 .219-.22v-1.312a.219.219 0 0 0-.219-.218H8.75Zm0 3.718a.219.219 0 0 0-.219.22v1.312a.219.219 0 0 0 .219.218h5.031A.219.219 0 0 0 14 18.43v-1.313a.218.218 0 0 0-.219-.219H8.75Z" fill="#fff"/></svg>