<svg width="28" height="28" fill="none" xmlns="http://www.w3.org/2000/svg"><path d="M23.405 21.814A12.241 12.241 0 1 0 1.75 14c0 2.858 1.008 5.624 2.845 7.814l-.018.015c.061.073.131.136.194.209.08.09.164.175.245.262a12 12 0 0 0 .762.761c.08.074.163.142.245.212.28.242.567.471.866.684.038.027.073.06.112.088v-.01a12.163 12.163 0 0 0 14 0v.01c.038-.027.072-.061.112-.088.297-.214.586-.442.866-.684.082-.07.165-.139.245-.212.264-.24.516-.495.761-.76.082-.088.166-.173.245-.263.063-.073.133-.136.195-.21l-.02-.014ZM14 7a3.938 3.938 0 1 1 0 7.875A3.938 3.938 0 0 1 14 7ZM7.006 21.814a4.372 4.372 0 0 1 4.369-4.314h5.25a4.372 4.372 0 0 1 4.369 4.314 10.448 10.448 0 0 1-13.988 0Z" fill="#fff"/></svg>