<svg width="28" height="28" fill="none" xmlns="http://www.w3.org/2000/svg"><path fill-rule="evenodd" clip-rule="evenodd" d="M23.456 22.296a2.333 2.333 0 0 1-2.33 2.204H6.874a2.334 2.334 0 0 1-2.33-2.204L3.637 5.963A2.333 2.333 0 0 1 5.967 3.5h16.067a2.333 2.333 0 0 1 2.33 2.463l-.908 16.333Zm-3.48-11.925c.478-.315.598-.94.206-1.346a8.414 8.414 0 0 0-2.302-1.681 8.898 8.898 0 0 0-3.825-.926 8.92 8.92 0 0 0-3.857.806 8.463 8.463 0 0 0-2.36 1.608c-.406.394-.308 1.022.159 1.352l2.515 1.777c.467.33 1.125.223 1.609-.085a3.37 3.37 0 0 1 1.756-.516l1.98-2.276a.583.583 0 0 1 .88.766l-1.535 1.764c.208.086.406.193.592.32.473.322 1.126.449 1.605.134l2.576-1.697Z" fill="#fff"/></svg>