<svg width="28" height="28" fill="none" xmlns="http://www.w3.org/2000/svg"><path d="M24.5 23.333V7a2.336 2.336 0 0 0-2.333-2.333h-2.334V2.333H17.5v2.334h-7V2.333H8.167v2.334H5.833A2.336 2.336 0 0 0 3.5 7v16.333a2.336 2.336 0 0 0 2.333 2.334h16.334a2.336 2.336 0 0 0 2.333-2.334ZM10.5 21H8.167v-2.333H10.5V21Zm0-4.667H8.167V14H10.5v2.333ZM15.167 21h-2.334v-2.333h2.334V21Zm0-4.667h-2.334V14h2.334v2.333ZM19.833 21H17.5v-2.333h2.333V21Zm0-4.667H17.5V14h2.333v2.333Zm2.334-5.833H5.833V8.167h16.334V10.5Z" fill="#fff"/></svg>