<svg width="28" height="28" fill="none" xmlns="http://www.w3.org/2000/svg"><path d="M14 25.667c-1.594 0-3.101-.307-4.52-.92A11.812 11.812 0 0 1 5.76 22.24a11.813 11.813 0 0 1-2.508-3.718A11.283 11.283 0 0 1 2.333 14c0-1.614.307-3.126.92-4.535A11.858 11.858 0 0 1 5.76 5.761a11.83 11.83 0 0 1 3.718-2.51A11.295 11.295 0 0 1 14 2.334c1.614 0 3.125.306 4.535.919 1.41.612 2.645 1.449 3.704 2.509a11.856 11.856 0 0 1 2.508 3.704c.613 1.41.92 2.921.92 4.535 0 1.595-.307 3.101-.92 4.52a11.812 11.812 0 0 1-2.508 3.719 11.856 11.856 0 0 1-3.704 2.508c-1.41.613-2.921.92-4.535.92Zm0-2.392a14.8 14.8 0 0 0 1.313-2.188 13.8 13.8 0 0 0 .904-2.42h-4.434c.234.855.535 1.662.905 2.42.369.759.806 1.488 1.312 2.188Zm-3.033-.467a16.11 16.11 0 0 1-.918-1.998 17.047 17.047 0 0 1-.657-2.143H5.95a9.686 9.686 0 0 0 2.114 2.537 8.4 8.4 0 0 0 2.903 1.604Zm6.066 0a8.388 8.388 0 0 0 2.902-1.604 9.674 9.674 0 0 0 2.115-2.537h-3.442a17.169 17.169 0 0 1-.655 2.143 16.22 16.22 0 0 1-.92 1.998ZM4.958 16.333h3.967a16.299 16.299 0 0 1-.132-1.152A15.593 15.593 0 0 1 8.75 14c0-.408.014-.802.043-1.18.03-.38.074-.764.132-1.153H4.958A9.346 9.346 0 0 0 4.666 14a9.347 9.347 0 0 0 .292 2.333Zm6.3 0h5.484A15.582 15.582 0 0 0 16.917 14a15.581 15.581 0 0 0-.175-2.333h-5.484A15.82 15.82 0 0 0 11.083 14a15.213 15.213 0 0 0 .175 2.333Zm7.817 0h3.967A9.331 9.331 0 0 0 23.334 14a9.331 9.331 0 0 0-.292-2.333h-3.967A15.82 15.82 0 0 1 19.25 14a15.164 15.164 0 0 1-.175 2.333Zm-.467-7h3.442a9.675 9.675 0 0 0-2.115-2.537 8.389 8.389 0 0 0-2.902-1.604c.35.641.657 1.307.92 1.997.262.69.48 1.405.655 2.144Zm-6.825 0h4.434a13.802 13.802 0 0 0-.904-2.42A14.804 14.804 0 0 0 14 4.725c-.505.7-.943 1.43-1.313 2.188a13.81 13.81 0 0 0-.904 2.42Zm-5.833 0h3.442c.175-.739.394-1.453.657-2.144.262-.69.568-1.356.918-1.997a8.4 8.4 0 0 0-2.903 1.604A9.687 9.687 0 0 0 5.95 9.333Z" fill="#fff"/></svg>