<svg aria-hidden="true" style="width:0;height:0;position:absolute;overflow:hidden" xmlns="http://www.w3.org/2000/svg"><defs><symbol id="android" viewBox="0 0 24 24"><path d="M15 5.016V3.985h-.984v1.031H15zm-5.016 0V3.985H9v1.031h.984zm5.532-2.86Q18 3.937 18 6.984H6q0-1.266.703-2.672t1.734-2.156L7.124.843q-.375-.375 0-.703t.703 0l1.5 1.5q1.219-.656 2.672-.656 1.219 0 2.625.656l1.5-1.5q.375-.328.703 0t0 .703zm4.968 5.86q.609 0 1.055.445t.445 1.055V16.5q0 .656-.445 1.078T20.484 18t-1.055-.422-.445-1.078V9.516q0-.609.445-1.055t1.055-.445zm-16.968 0q.609 0 1.055.445t.445 1.055V16.5q0 .656-.445 1.078T3.516 18t-1.055-.422-.445-1.078V9.516q0-.609.445-1.055t1.055-.445zM6 18V8.016h12V18q0 .422-.281.703t-.703.281h-1.031V22.5q0 .656-.445 1.078T14.485 24t-1.055-.422-.445-1.078v-3.516h-1.969V22.5q0 .656-.445 1.078T9.516 24t-1.055-.422-.445-1.078v-3.516H6.985q-.422 0-.703-.281T6.001 18z"/></symbol><symbol id="apple" viewBox="0 0 32 32"><path d="M24.734 17.003c-.04-4.053 3.305-5.996 3.454-6.093-1.88-2.751-4.808-3.127-5.851-3.171-2.492-.252-4.862 1.467-6.127 1.467-1.261 0-3.213-1.43-5.28-1.392-2.716.04-5.221 1.579-6.619 4.012-2.822 4.897-.723 12.151 2.028 16.123 1.344 1.944 2.947 4.127 5.051 4.049 2.026-.081 2.793-1.311 5.242-1.311s3.138 1.311 5.283 1.271c2.18-.041 3.562-1.981 4.897-3.931 1.543-2.255 2.179-4.439 2.216-4.551-.048-.022-4.252-1.632-4.294-6.473zM20.705 5.11C21.822 3.755 22.576 1.875 22.37 0c-1.609.066-3.559 1.072-4.713 2.423-1.036 1.199-1.942 3.113-1.699 4.951 1.796.14 3.629-.913 4.747-2.264z"/></symbol><symbol id="arrow-right" viewBox="0 0 32 32"><path fill="#fff" style="fill:var(--color2,#fff)" d="m9.6 24 8-8-8-8 1.6-3.2L22.4 16 11.2 27.2 9.6 24z"/></symbol><symbol id="linkedin" viewBox="0 0 32 32"><path d="M8.268 28H2.463V9.306h5.805V28zM5.362 6.756C3.506 6.756 2 5.218 2 3.362A3.366 3.366 0 0 1 5.362 0a3.366 3.366 0 0 1 3.362 3.362c0 1.856-1.506 3.394-3.362 3.394zM29.994 28h-5.792v-9.1c0-2.169-.044-4.95-3.018-4.95-3.018 0-3.481 2.356-3.481 4.794V28h-5.799V9.306h5.567v2.55h.081c.775-1.469 2.668-3.019 5.492-3.019 5.875 0 6.955 3.869 6.955 8.894V28h-.005z"/></symbol><symbol id="twitter" viewBox="0 0 32 32"><path d="M30.134 5.599a13.49 13.49 0 0 1-3.882 1.892 5.548 5.548 0 0 0-6.155-1.54 5.545 5.545 0 0 0-3.564 5.249v1.236A13.184 13.184 0 0 1 5.406 6.835S.461 17.962 11.588 22.908a14.397 14.397 0 0 1-8.655 2.473c11.127 6.182 24.727 0 24.727-14.218a5.522 5.522 0 0 0-.099-1.026A9.55 9.55 0 0 0 30.133 5.6z"/></symbol><symbol id="facebook" viewBox="0 0 32 32"><path d="M22.4 2.667h-4a6.67 6.67 0 0 0-6.667 6.667v4h-4v5.333h4v10.667h5.333V18.667h4l1.333-5.333h-5.333v-4A1.335 1.335 0 0 1 18.4 8h4V2.667z"/></symbol><symbol id="test" viewBox="0 0 32 32"><path stroke-width=".8" d="M31.6 16c0 8.616-6.984 15.6-15.6 15.6S.4 24.616.4 16 7.384.4 16 .4 31.6 7.384 31.6 16z"/><path stroke-width=".8" d="M22.6 16.866V21.6h-2.099v-4.15c0-.525 0-1.224-.225-1.792-.117-.295-.301-.574-.592-.777s-.656-.306-1.092-.306c-.429 0-.797.084-1.102.253a1.73 1.73 0 0 0-.684.695c-.299.543-.354 1.232-.354 1.849V21.6h-2.1v-8.547h1.984v1.275h.682l.113-.213c.322-.61 1.136-1.296 2.392-1.296 1.37 0 2.091.442 2.502 1.094.437.694.576 1.705.576 2.953zM11.734 21.6H9.632v-8.547h2.102V21.6zm-1.053-10.622A1.295 1.295 0 0 1 9.4 9.681a1.281 1.281 0 1 1 2.562 0c0 .712-.579 1.297-1.281 1.297z"/></symbol></defs></svg>