<!-- Generated by IcoMoon.io -->
<svg version="1.1" xmlns="http://www.w3.org/2000/svg" width="32" height="32" viewBox="0 0 32 32">
<title>entypo-social_linkedin-with-circle</title>
<path fill="#000" d="M32 16c0 8.837-7.163 16-16 16s-16-7.163-16-16c0-8.837 7.163-16 16-16s16 7.163 16 16z"></path>
<path fill="#fff" d="M10.623 20.922c0 0.501 0.425 0.911 0.947 0.911h1.082v2.58c0 0.654 0.545 1.187 1.214 1.187 0.671 0 1.214-0.531 1.214-1.187v-2.582h1.889v2.58c0 0.654 0.545 1.187 1.214 1.187 0.671 0 1.214-0.531 1.214-1.187v-2.58h1.082c0.522 0 0.947-0.409 0.947-0.911v-8.468h-10.803v8.47zM18.561 8.064l0.998-1.393c0.058-0.081 0.044-0.191-0.033-0.244-0.078-0.051-0.189-0.026-0.247 0.056l-1.036 1.448c-0.682-0.259-1.443-0.403-2.241-0.403s-1.558 0.144-2.241 0.403l-1.036-1.446c-0.058-0.081-0.169-0.109-0.247-0.056-0.078 0.051-0.091 0.159-0.033 0.244l0.998 1.393c-1.587 0.711-2.698 2.059-2.841 3.634h10.803c-0.147-1.577-1.26-2.925-2.845-3.636zM13.722 10.26c-0.118 0-0.234-0.034-0.332-0.097s-0.175-0.153-0.22-0.259c-0.045-0.105-0.057-0.221-0.034-0.333s0.080-0.214 0.164-0.295c0.084-0.081 0.19-0.136 0.306-0.158s0.236-0.011 0.345 0.033c0.109 0.044 0.203 0.117 0.268 0.212s0.101 0.206 0.101 0.32c-0 0.153-0.064 0.299-0.176 0.407s-0.264 0.169-0.422 0.169zM18.354 10.26c-0.118 0-0.234-0.034-0.332-0.097s-0.175-0.153-0.22-0.259c-0.045-0.105-0.057-0.221-0.034-0.333s0.080-0.214 0.164-0.295c0.084-0.081 0.19-0.136 0.306-0.158s0.236-0.011 0.346 0.033c0.109 0.044 0.203 0.117 0.268 0.212s0.101 0.206 0.101 0.32c-0 0.153-0.064 0.299-0.176 0.407s-0.264 0.169-0.422 0.169zM23.32 12.418c-0.671 0-1.214 0.531-1.214 1.187v4.637c0 0.654 0.545 1.187 1.214 1.187 0.671 0 1.214-0.531 1.214-1.187v-4.639c0.002-0.656-0.54-1.185-1.214-1.185zM8.68 12.418c-0.671 0-1.214 0.531-1.214 1.187v4.637c0 0.654 0.545 1.187 1.214 1.187 0.671 0 1.214-0.531 1.214-1.187v-4.639c0-0.656-0.545-1.185-1.214-1.185z"></path>
</svg>
