<!-- Generated by IcoMoon.io -->
<svg version="1.1" xmlns="http://www.w3.org/2000/svg" width="32" height="32" viewBox="0 0 32 32">
<title>Group-420</title>
<path fill="#000" d="M32 16c0 8.837-7.163 16-16 16s-16-7.163-16-16c0-8.837 7.163-16 16-16s16 7.163 16 16z"></path>
<path fill="#fff" d="M20 9.708c0-0.098-0.038-0.192-0.106-0.262s-0.161-0.108-0.257-0.108h-1.818c-0.916-0.046-1.812 0.278-2.493 0.902s-1.092 1.498-1.143 2.43v1.999h-1.818c-0.096 0-0.189 0.039-0.257 0.108s-0.106 0.164-0.106 0.262v1.925c0 0.098 0.038 0.192 0.106 0.262s0.161 0.108 0.257 0.108h1.818v4.961c0 0.098 0.038 0.192 0.106 0.262s0.161 0.108 0.257 0.108h2.182c0.096 0 0.189-0.039 0.257-0.108s0.106-0.164 0.106-0.262v-4.961h1.906c0.081 0.001 0.16-0.025 0.224-0.075s0.111-0.12 0.132-0.199l0.524-1.925c0.014-0.055 0.016-0.112 0.006-0.168s-0.034-0.108-0.068-0.153c-0.034-0.045-0.077-0.082-0.127-0.107s-0.105-0.039-0.16-0.039h-2.436v-1.999c0.018-0.183 0.103-0.353 0.237-0.476s0.309-0.191 0.49-0.19h1.818c0.096 0 0.189-0.039 0.257-0.108s0.106-0.164 0.106-0.262v-1.925z"></path>
</svg>
