<!-- Generated by IcoMoon.io -->
<svg version="1.1" xmlns="http://www.w3.org/2000/svg" width="32" height="32" viewBox="0 0 32 32">
<title>Group-422</title>
<path fill="#000" d="M32 16c0 8.837-7.163 16-16 16s-16-7.163-16-16c0-8.837 7.163-16 16-16s16 7.163 16 16z"></path>
<path fill="#fff" d="M12.134 22h-2.902v-9.347h2.902v9.347zM10.681 11.378c-0.928 0-1.681-0.769-1.681-1.697 0-0.446 0.177-0.873 0.492-1.189s0.743-0.492 1.189-0.492c0.446 0 0.873 0.177 1.189 0.492s0.492 0.743 0.492 1.189c0 0.928-0.753 1.697-1.681 1.697zM22.997 22h-2.896v-4.55c0-1.084-0.022-2.475-1.509-2.475-1.509 0-1.74 1.178-1.74 2.397v4.628h-2.9v-9.347h2.784v1.275h0.040c0.388-0.734 1.334-1.51 2.746-1.51 2.938 0 3.478 1.935 3.478 4.447v5.134h-0.003z"></path>
</svg>
