<svg width="28" height="28" viewBox="0 0 28 28" fill="none" xmlns="http://www.w3.org/2000/svg">
<path d="M23.368 7.89414C23.532 8.0582 23.625 8.27969 23.625 8.51211V25.375C23.625 25.859 23.234 26.25 22.75 26.25H5.25C4.76602 26.25 4.375 25.859 4.375 25.375V2.625C4.375 2.14102 4.76602 1.75 5.25 1.75H16.8629C17.0953 1.75 17.3195 1.84297 17.4836 2.00703L23.368 7.89414ZM21.607 8.91406L16.4609 3.76797V8.91406H21.607ZM8.75 13.1797C8.69198 13.1797 8.63634 13.2027 8.59532 13.2438C8.5543 13.2848 8.53125 13.3404 8.53125 13.3984V14.7109C8.53125 14.769 8.5543 14.8246 8.59532 14.8656C8.63634 14.9066 8.69198 14.9297 8.75 14.9297H19.25C19.308 14.9297 19.3637 14.9066 19.4047 14.8656C19.4457 14.8246 19.4688 14.769 19.4688 14.7109V13.3984C19.4688 13.3404 19.4457 13.2848 19.4047 13.2438C19.3637 13.2027 19.308 13.1797 19.25 13.1797H8.75ZM8.75 16.8984C8.69198 16.8984 8.63634 16.9215 8.59532 16.9625C8.5543 17.0035 8.53125 17.0592 8.53125 17.1172V18.4297C8.53125 18.4877 8.5543 18.5433 8.59532 18.5844C8.63634 18.6254 8.69198 18.6484 8.75 18.6484H13.7812C13.8393 18.6484 13.8949 18.6254 13.9359 18.5844C13.977 18.5433 14 18.4877 14 18.4297V17.1172C14 17.0592 13.977 17.0035 13.9359 16.9625C13.8949 16.9215 13.8393 16.8984 13.7812 16.8984H8.75Z" fill="white"/>
</svg>
