<svg width="28" height="28" viewBox="0 0 28 28" fill="none" xmlns="http://www.w3.org/2000/svg">
<path fill-rule="evenodd" clip-rule="evenodd" d="M23.4559 22.2962C23.4228 22.8917 23.1629 23.4519 22.7296 23.8618C22.2963 24.2716 21.7225 24.5 21.1261 24.5H6.87406C6.27762 24.5 5.70382 24.2716 5.27052 23.8618C4.83722 23.4519 4.57733 22.8917 4.54422 22.2962L3.63714 5.96283C3.61953 5.64604 3.66672 5.32898 3.77581 5.03105C3.8849 4.73311 4.05361 4.46055 4.27163 4.23003C4.48964 3.99952 4.75238 3.81588 5.04378 3.69036C5.33517 3.56484 5.64911 3.50007 5.96639 3.5H22.0337C22.3511 3.49999 22.6651 3.5647 22.9565 3.69019C23.248 3.81568 23.5108 3.9993 23.7289 4.22982C23.9469 4.46035 24.1157 4.73293 24.2248 5.03091C24.334 5.32889 24.3812 5.64599 24.3636 5.96283L23.4559 22.2962ZM19.9757 10.3711C20.4541 10.0561 20.5742 9.43133 20.1816 9.02475C19.5157 8.33759 18.7375 7.76905 17.8804 7.34358C16.6903 6.75331 15.3832 6.43699 14.0549 6.41783C12.7254 6.3958 11.4078 6.67123 10.1985 7.224C9.32657 7.62239 8.52869 8.16601 7.83889 8.83167C7.43231 9.226 7.52972 9.85367 7.99697 10.1838L10.5123 11.9607C10.979 12.2908 11.637 12.1841 12.1206 11.8761C12.2453 11.7969 12.3753 11.7264 12.5096 11.6649C12.939 11.4685 13.4049 11.3646 13.877 11.3598L15.8562 9.08425C15.9577 8.96744 16.1014 8.89574 16.2558 8.88491C16.3322 8.87955 16.409 8.88929 16.4816 8.91358C16.5543 8.93788 16.6215 8.97625 16.6793 9.0265C16.7371 9.07675 16.7845 9.1379 16.8187 9.20646C16.8529 9.27503 16.8733 9.34965 16.8786 9.42608C16.884 9.50251 16.8743 9.57925 16.85 9.65191C16.8257 9.72458 16.7873 9.79175 16.7371 9.84958L15.2017 11.6142C15.4097 11.7002 15.6083 11.8073 15.7944 11.9338C16.2669 12.2564 16.9202 12.383 17.3986 12.068L19.9751 10.3705L19.9757 10.3711Z" fill="white"/>
</svg>
