<svg width="28" height="28" viewBox="0 0 28 28" fill="none" xmlns="http://www.w3.org/2000/svg">
<path d="M14 25.6667C12.4056 25.6667 10.8987 25.3603 9.47921 24.7474C8.05976 24.1353 6.82037 23.2992 5.76104 22.239C4.70093 21.1797 3.86482 19.9403 3.25271 18.5209C2.63982 17.1014 2.33337 15.5945 2.33337 14C2.33337 12.3862 2.63982 10.8745 3.25271 9.46521C3.86482 8.0551 4.70093 6.82037 5.76104 5.76104C6.82037 4.70093 8.05976 3.86443 9.47921 3.25154C10.8987 2.63943 12.4056 2.33337 14 2.33337C15.6139 2.33337 17.1255 2.63943 18.5349 3.25154C19.945 3.86443 21.1797 4.70093 22.239 5.76104C23.2992 6.82037 24.1353 8.0551 24.7474 9.46521C25.3603 10.8745 25.6667 12.3862 25.6667 14C25.6667 15.5945 25.3603 17.1014 24.7474 18.5209C24.1353 19.9403 23.2992 21.1797 22.239 22.239C21.1797 23.2992 19.945 24.1353 18.5349 24.7474C17.1255 25.3603 15.6139 25.6667 14 25.6667ZM14 23.275C14.5056 22.575 14.9431 21.8459 15.3125 21.0875C15.682 20.3292 15.9834 19.5223 16.2167 18.6667H11.7834C12.0167 19.5223 12.3181 20.3292 12.6875 21.0875C13.057 21.8459 13.4945 22.575 14 23.275ZM10.9667 22.8084C10.6167 22.1667 10.3107 21.5005 10.0485 20.8099C9.78565 20.12 9.56671 19.4056 9.39171 18.6667H5.95004C6.51393 19.6389 7.2186 20.4848 8.06404 21.2042C8.91026 21.9237 9.87782 22.4584 10.9667 22.8084ZM17.0334 22.8084C18.1223 22.4584 19.0894 21.9237 19.9349 21.2042C20.7811 20.4848 21.4862 19.6389 22.05 18.6667H18.6084C18.4334 19.4056 18.2148 20.12 17.9527 20.8099C17.6898 21.5005 17.3834 22.1667 17.0334 22.8084ZM4.95837 16.3334H8.92504C8.86671 15.9445 8.82276 15.5603 8.79321 15.1807C8.76443 14.8019 8.75004 14.4084 8.75004 14C8.75004 13.5917 8.76443 13.1982 8.79321 12.8194C8.82276 12.4398 8.86671 12.0556 8.92504 11.6667H4.95837C4.86115 12.0556 4.78804 12.4398 4.73904 12.8194C4.69082 13.1982 4.66671 13.5917 4.66671 14C4.66671 14.4084 4.69082 14.8019 4.73904 15.1807C4.78804 15.5603 4.86115 15.9445 4.95837 16.3334ZM11.2584 16.3334H16.7417C16.8 15.9445 16.844 15.5603 16.8735 15.1807C16.9023 14.8019 16.9167 14.4084 16.9167 14C16.9167 13.5917 16.9023 13.1982 16.8735 12.8194C16.844 12.4398 16.8 12.0556 16.7417 11.6667H11.2584C11.2 12.0556 11.1565 12.4398 11.1277 12.8194C11.0982 13.1982 11.0834 13.5917 11.0834 14C11.0834 14.4084 11.0982 14.8019 11.1277 15.1807C11.1565 15.5603 11.2 15.9445 11.2584 16.3334ZM19.075 16.3334H23.0417C23.1389 15.9445 23.212 15.5603 23.261 15.1807C23.3093 14.8019 23.3334 14.4084 23.3334 14C23.3334 13.5917 23.3093 13.1982 23.261 12.8194C23.212 12.4398 23.1389 12.0556 23.0417 11.6667H19.075C19.1334 12.0556 19.1769 12.4398 19.2057 12.8194C19.2353 13.1982 19.25 13.5917 19.25 14C19.25 14.4084 19.2353 14.8019 19.2057 15.1807C19.1769 15.5603 19.1334 15.9445 19.075 16.3334ZM18.6084 9.33337H22.05C21.4862 8.36115 20.7811 7.51532 19.9349 6.79587C19.0894 6.07643 18.1223 5.54171 17.0334 5.19171C17.3834 5.83337 17.6898 6.49915 17.9527 7.18904C18.2148 7.87971 18.4334 8.59449 18.6084 9.33337ZM11.7834 9.33337H16.2167C15.9834 8.47782 15.682 7.67087 15.3125 6.91254C14.9431 6.15421 14.5056 5.42504 14 4.72504C13.4945 5.42504 13.057 6.15421 12.6875 6.91254C12.3181 7.67087 12.0167 8.47782 11.7834 9.33337ZM5.95004 9.33337H9.39171C9.56671 8.59449 9.78565 7.87971 10.0485 7.18904C10.3107 6.49915 10.6167 5.83337 10.9667 5.19171C9.87782 5.54171 8.91026 6.07643 8.06404 6.79587C7.2186 7.51532 6.51393 8.36115 5.95004 9.33337Z" fill="white"/>
</svg>
