<svg width="28" height="28" viewBox="0 0 28 28" fill="none" xmlns="http://www.w3.org/2000/svg">
<g clip-path="url(#clip0_325_166)">
<path d="M9.62506 16.5165V14.875H11.3751V16.5165C11.3751 16.6599 11.3927 16.8027 11.4276 16.9417L12.1276 19.7383L10.5001 20.8233L8.87256 19.7383L9.57256 16.9417C9.60741 16.8027 9.62504 16.6599 9.62506 16.5165Z" fill="white"/>
<path d="M16.2628 0H7C6.07174 0 5.1815 0.368749 4.52513 1.02513C3.86875 1.6815 3.5 2.57174 3.5 3.5V24.5C3.5 25.4283 3.86875 26.3185 4.52513 26.9749C5.1815 27.6313 6.07174 28 7 28H21C21.9283 28 22.8185 27.6313 23.4749 26.9749C24.1313 26.3185 24.5 25.4283 24.5 24.5V8.23725C24.4999 7.77316 24.3155 7.32811 23.9872 7L17.5 0.51275C17.1719 0.184539 16.7268 9.91155e-05 16.2628 0V0ZM16.625 6.125V2.625L21.875 7.875H18.375C17.9109 7.875 17.4658 7.69063 17.1376 7.36244C16.8094 7.03425 16.625 6.58913 16.625 6.125ZM9.625 5.25V3.5H7.875V1.75H10.5V3.5H12.25V5.25H10.5V7H12.25V8.75H10.5V10.5H12.25V12.25H9.625V10.5H7.875V8.75H9.625V7H7.875V5.25H9.625ZM9.625 13.125H11.375C11.8391 13.125 12.2842 13.3094 12.6124 13.6376C12.9406 13.9658 13.125 14.4109 13.125 14.875V16.5165L13.825 19.3147C13.9122 19.6649 13.8891 20.0334 13.7588 20.3698C13.6284 20.7063 13.3973 20.9942 13.097 21.1943L11.4695 22.2792C11.1821 22.4707 10.8445 22.5729 10.4991 22.5729C10.1538 22.5729 9.81615 22.4707 9.52875 22.2792L7.90125 21.1943C7.60127 20.994 7.37049 20.7059 7.24048 20.3695C7.11048 20.0331 7.08761 19.6647 7.175 19.3147L7.875 16.5165V14.875C7.875 14.4109 8.05937 13.9658 8.38756 13.6376C8.71575 13.3094 9.16087 13.125 9.625 13.125Z" fill="white"/>
</g>
<defs>
<clipPath id="clip0_325_166">
<rect width="28" height="28" fill="white"/>
</clipPath>
</defs>
</svg>
