<svg width="28" height="28" viewBox="0 0 28 28" fill="none" xmlns="http://www.w3.org/2000/svg">
<g clip-path="url(#clip0_325_200)">
<path d="M11.8125 0H16.1875C16.9148 0 17.5 0.585156 17.5 1.3125V10.5H22.2961C23.2695 10.5 23.7562 11.6758 23.0672 12.3648L14.7492 20.6883C14.3391 21.0984 13.6664 21.0984 13.2562 20.6883L4.92734 12.3648C4.23828 11.6758 4.725 10.5 5.69844 10.5H10.5V1.3125C10.5 0.585156 11.0852 0 11.8125 0ZM28 20.5625V26.6875C28 27.4148 27.4148 28 26.6875 28H1.3125C0.585156 28 0 27.4148 0 26.6875V20.5625C0 19.8352 0.585156 19.25 1.3125 19.25H9.33516L12.0148 21.9297C13.1141 23.0289 14.8859 23.0289 15.9852 21.9297L18.6648 19.25H26.6875C27.4148 19.25 28 19.8352 28 20.5625ZM21.2188 25.375C21.2188 24.7734 20.7266 24.2812 20.125 24.2812C19.5234 24.2812 19.0312 24.7734 19.0312 25.375C19.0312 25.9766 19.5234 26.4688 20.125 26.4688C20.7266 26.4688 21.2188 25.9766 21.2188 25.375ZM24.7188 25.375C24.7188 24.7734 24.2266 24.2812 23.625 24.2812C23.0234 24.2812 22.5312 24.7734 22.5312 25.375C22.5312 25.9766 23.0234 26.4688 23.625 26.4688C24.2266 26.4688 24.7188 25.9766 24.7188 25.375Z" fill="white"/>
</g>
<defs>
<clipPath id="clip0_325_200">
<rect width="28" height="28" fill="white"/>
</clipPath>
</defs>
</svg>
