<svg width="28" height="28" viewBox="0 0 28 28" fill="none" xmlns="http://www.w3.org/2000/svg">
<path d="M24.5 23.3334V7.00004C24.5 5.71321 23.4535 4.66671 22.1667 4.66671H19.8333V2.33337H17.5V4.66671H10.5V2.33337H8.16667V4.66671H5.83333C4.5465 4.66671 3.5 5.71321 3.5 7.00004V23.3334C3.5 24.6202 4.5465 25.6667 5.83333 25.6667H22.1667C23.4535 25.6667 24.5 24.6202 24.5 23.3334ZM10.5 21H8.16667V18.6667H10.5V21ZM10.5 16.3334H8.16667V14H10.5V16.3334ZM15.1667 21H12.8333V18.6667H15.1667V21ZM15.1667 16.3334H12.8333V14H15.1667V16.3334ZM19.8333 21H17.5V18.6667H19.8333V21ZM19.8333 16.3334H17.5V14H19.8333V16.3334ZM22.1667 10.5H5.83333V8.16671H22.1667V10.5Z" fill="white"/>
</svg>
