<svg width="28" height="28" viewBox="0 0 28 28" fill="none" xmlns="http://www.w3.org/2000/svg">
<path d="M23.4054 21.8138C24.662 20.3019 25.536 18.5095 25.9534 16.5884C26.3708 14.6673 26.3194 12.6739 25.8035 10.7769C25.2876 8.87985 24.3223 7.13497 22.9894 5.68986C21.6566 4.24476 19.9952 3.14193 18.146 2.47468C16.2967 1.80743 14.314 1.59539 12.3655 1.85649C10.4169 2.11759 8.55997 2.84415 6.95163 3.97471C5.34329 5.10527 4.0309 6.60657 3.12549 8.35161C2.22008 10.0966 1.74828 12.0341 1.75 14C1.75067 16.8579 2.75778 19.6243 4.59463 21.8138L4.57713 21.8286C4.63838 21.9021 4.70838 21.9651 4.77138 22.0378C4.85013 22.1279 4.935 22.2128 5.01638 22.3003C5.26138 22.5663 5.51338 22.8218 5.77763 23.0615C5.85813 23.135 5.94125 23.2033 6.02263 23.2733C6.30263 23.5148 6.5905 23.744 6.88888 23.9575C6.92738 23.9838 6.96238 24.0179 7.00088 24.045V24.0345C9.05022 25.4767 11.495 26.2507 14.0009 26.2507C16.5068 26.2507 18.9515 25.4767 21.0009 24.0345V24.045C21.0394 24.0179 21.0735 23.9838 21.1129 23.9575C21.4104 23.7431 21.6991 23.5148 21.9791 23.2733C22.0605 23.2033 22.1436 23.1341 22.2241 23.0615C22.4884 22.8209 22.7404 22.5663 22.9854 22.3003C23.0668 22.2128 23.1508 22.1279 23.2304 22.0378C23.2925 21.9651 23.3634 21.9021 23.4246 21.8278L23.4054 21.8138ZM14 7.00002C14.7788 7.00002 15.54 7.23095 16.1876 7.66361C16.8351 8.09627 17.3398 8.71122 17.6378 9.43071C17.9358 10.1502 18.0138 10.9419 17.8618 11.7057C17.7099 12.4695 17.3349 13.1711 16.7842 13.7218C16.2336 14.2724 15.532 14.6474 14.7682 14.7994C14.0044 14.9513 13.2127 14.8733 12.4932 14.5753C11.7737 14.2773 11.1588 13.7726 10.7261 13.1251C10.2934 12.4776 10.0625 11.7163 10.0625 10.9375C10.0625 9.89323 10.4773 8.89171 11.2158 8.15329C11.9542 7.41486 12.9557 7.00002 14 7.00002ZM7.00613 21.8138C7.02131 20.6649 7.48821 19.5681 8.30582 18.7608C9.12343 17.9535 10.226 17.5006 11.375 17.5H16.625C17.774 17.5006 18.8766 17.9535 19.6942 18.7608C20.5118 19.5681 20.9787 20.6649 20.9939 21.8138C19.0749 23.5431 16.5832 24.5001 14 24.5001C11.4168 24.5001 8.92514 23.5431 7.00613 21.8138Z" fill="white"/>
</svg>
