<svg width="80" height="106" viewBox="0 0 80 106" fill="none" xmlns="http://www.w3.org/2000/svg">
<g clip-path="url(#clip0_325_133)">
<path d="M46.6667 27.9068V0H5C2.22917 0 0 2.19561 0 4.92474V100.136C0 102.865 2.22917 105.061 5 105.061H75C77.7708 105.061 80 102.865 80 100.136V32.8316H51.6667C48.9167 32.8316 46.6667 30.6154 46.6667 27.9068ZM62.5938 71.2773L42.5062 90.9147C41.1208 92.2711 38.8833 92.2711 37.4979 90.9147L17.4104 71.2773C15.2958 69.211 16.7792 65.6631 19.7542 65.6631H33.3333V49.2474C33.3333 47.4334 34.825 45.9642 36.6667 45.9642H43.3333C45.175 45.9642 46.6667 47.4334 46.6667 49.2474V65.6631H60.2458C63.2208 65.6631 64.7042 69.211 62.5938 71.2773ZM78.5417 21.5457L58.1458 1.43638C57.2083 0.512993 55.9375 0 54.6042 0H53.3333V26.2653H80V25.0136C80 23.7208 79.4792 22.4691 78.5417 21.5457Z" fill="white"/>
</g>
<defs>
<clipPath id="clip0_325_133">
<rect width="80" height="106" fill="white"/>
</clipPath>
</defs>
</svg>
