<svg width="28" height="28" viewBox="0 0 28 28" fill="none" xmlns="http://www.w3.org/2000/svg">
<path d="M24.5047 2.33801H3.50472C2.88645 2.33986 2.29403 2.58628 1.85684 3.02347C1.41966 3.46066 1.17323 4.05308 1.17139 4.67135V18.6713C1.17323 19.2896 1.41966 19.882 1.85684 20.3192C2.29403 20.7564 2.88645 21.0028 3.50472 21.0047H11.6714V23.338H9.33805V25.6713H18.6714V23.338H16.3381V21.0047H24.5047C25.123 21.0028 25.7154 20.7564 26.1526 20.3192C26.5898 19.882 26.8362 19.2896 26.8381 18.6713V4.67135C26.8362 4.05308 26.5898 3.46066 26.1526 3.02347C25.7154 2.58628 25.123 2.33986 24.5047 2.33801ZM12.5487 15.9483H12.5476L7.00589 10.4067L8.65672 8.75818L12.5487 12.6502L19.3562 5.84151L21.0071 7.49235L12.5487 15.9483Z" fill="white"/>
</svg>
