<!-- Generated by IcoMoon.io -->
<svg version="1.1" xmlns="http://www.w3.org/2000/svg" width="32" height="32" viewBox="0 0 32 32">
<title>Group-421</title>
<path fill="#000" d="M32 16c0 8.837-7.163 16-16 16s-16-7.163-16-16c0-8.837 7.163-16 16-16s16 7.163 16 16z"></path>
<path fill="#fff" d="M23 11.784c-0.192 0.287-0.409 0.556-0.65 0.803-0.242 0.249-0.505 0.476-0.786 0.68 0.009 0.126 0.014 0.251 0.014 0.377 0 0.574-0.061 1.141-0.184 1.702-0.123 0.559-0.301 1.104-0.534 1.627-0.322 0.737-0.748 1.424-1.264 2.040-0.495 0.589-1.074 1.102-1.72 1.521-0.648 0.418-1.354 0.738-2.095 0.95-0.773 0.221-1.574 0.332-2.379 0.329-0.776 0.001-1.548-0.108-2.293-0.325-0.747-0.217-1.457-0.544-2.109-0.968 0.752 0.091 1.515 0.033 2.244-0.172s1.412-0.55 2.008-1.018c-0.446-0.006-0.884-0.117-1.278-0.324s-0.736-0.503-0.995-0.866c-0.177-0.244-0.314-0.514-0.407-0.8 0.091 0.014 0.181 0.026 0.27 0.035 0.343 0.034 0.69 0.003 1.022-0.089-0.328-0.065-0.641-0.187-0.926-0.362-0.276-0.17-0.522-0.383-0.728-0.633-0.423-0.512-0.653-1.157-0.65-1.822v-0.033c0.402 0.227 0.837 0.348 1.306 0.362-0.391-0.266-0.712-0.623-0.936-1.040-0.11-0.206-0.195-0.423-0.253-0.649-0.119-0.477-0.117-0.977 0.007-1.453 0.063-0.243 0.161-0.474 0.294-0.693 0.364 0.451 0.77 0.856 1.216 1.213 0.886 0.711 1.911 1.23 3.008 1.525 0.554 0.148 1.122 0.237 1.695 0.263-0.028-0.107-0.047-0.215-0.058-0.325s-0.017-0.22-0.017-0.331c0-0.397 0.075-0.77 0.226-1.118 0.293-0.688 0.84-1.235 1.528-1.528 0.353-0.151 0.733-0.228 1.117-0.225 0.394-0.002 0.784 0.078 1.145 0.234s0.686 0.386 0.954 0.675c0.642-0.127 1.257-0.363 1.818-0.698-0.208 0.666-0.656 1.232-1.258 1.586 0.569-0.066 1.124-0.218 1.648-0.449v-0.001z"></path>
</svg>
