<svg width="24" height="24" viewBox="0 0 24 24" fill="none" xmlns="http://www.w3.org/2000/svg">
<path d="M17.913 5.02948L12 10.9425L6.08702 5.02948C5.9448 4.89934 5.75785 4.82909 5.56513 4.83336C5.3724 4.83763 5.18875 4.91609 5.05244 5.0524C4.91613 5.18872 4.83766 5.37236 4.83339 5.56509C4.82912 5.75782 4.89937 5.94476 5.02952 6.08698L10.9395 12L5.02802 17.9115C4.95579 17.9803 4.89806 18.0629 4.85821 18.1543C4.81836 18.2458 4.79719 18.3443 4.79596 18.4441C4.79472 18.5438 4.81344 18.6428 4.85101 18.7352C4.88859 18.8277 4.94426 18.9116 5.01475 18.9822C5.08525 19.0528 5.16914 19.1086 5.26151 19.1463C5.35388 19.184 5.45285 19.2029 5.55261 19.2018C5.65237 19.2007 5.7509 19.1797 5.84242 19.1399C5.93393 19.1002 6.01659 19.0426 6.08552 18.9705L12 13.059L17.913 18.972C18.0552 19.1021 18.2422 19.1724 18.4349 19.1681C18.6276 19.1638 18.8113 19.0854 18.9476 18.9491C19.0839 18.8127 19.1624 18.6291 19.1666 18.4364C19.1709 18.2436 19.1007 18.0567 18.9705 17.9145L13.0575 12.0015L18.9705 6.08698C19.0427 6.01815 19.1005 5.93558 19.1403 5.84412C19.1802 5.75266 19.2013 5.65416 19.2026 5.5544C19.2038 5.45464 19.1851 5.35564 19.1475 5.26323C19.1099 5.17081 19.0543 5.08683 18.9838 5.01624C18.9133 4.94564 18.8294 4.88985 18.737 4.85215C18.6447 4.81444 18.5457 4.79558 18.4459 4.79668C18.3462 4.79777 18.2476 4.8188 18.1561 4.85852C18.0646 4.89824 17.9819 4.95586 17.913 5.02798V5.02948Z" fill="white"/>
</svg>
