<svg aria-hidden="true" style="position: absolute; width: 0; height: 0; overflow: hidden;" version="1.1" xmlns="http://www.w3.org/2000/svg" xmlns:xlink="http://www.w3.org/1999/xlink">
<defs>
<symbol id="android" viewBox="0 0 24 24">
<path d="M15 5.016v-1.031h-0.984v1.031h0.984zM9.984 5.016v-1.031h-0.984v1.031h0.984zM15.516 2.156q2.484 1.781 2.484 4.828h-12q0-1.266 0.703-2.672t1.734-2.156l-1.313-1.313q-0.375-0.375 0-0.703t0.703 0l1.5 1.5q1.219-0.656 2.672-0.656 1.219 0 2.625 0.656l1.5-1.5q0.375-0.328 0.703 0t0 0.703zM20.484 8.016q0.609 0 1.055 0.445t0.445 1.055v6.984q0 0.656-0.445 1.078t-1.055 0.422-1.055-0.422-0.445-1.078v-6.984q0-0.609 0.445-1.055t1.055-0.445zM3.516 8.016q0.609 0 1.055 0.445t0.445 1.055v6.984q0 0.656-0.445 1.078t-1.055 0.422-1.055-0.422-0.445-1.078v-6.984q0-0.609 0.445-1.055t1.055-0.445zM6 18v-9.984h12v9.984q0 0.422-0.281 0.703t-0.703 0.281h-1.031v3.516q0 0.656-0.445 1.078t-1.055 0.422-1.055-0.422-0.445-1.078v-3.516h-1.969v3.516q0 0.656-0.445 1.078t-1.055 0.422-1.055-0.422-0.445-1.078v-3.516h-1.031q-0.422 0-0.703-0.281t-0.281-0.703z"></path>
</symbol>
<symbol id="apple" viewBox="0 0 32 32">
<path d="M24.734 17.003c-0.040-4.053 3.305-5.996 3.454-6.093-1.88-2.751-4.808-3.127-5.851-3.171-2.492-0.252-4.862 1.467-6.127 1.467-1.261 0-3.213-1.43-5.28-1.392-2.716 0.040-5.221 1.579-6.619 4.012-2.822 4.897-0.723 12.151 2.028 16.123 1.344 1.944 2.947 4.127 5.051 4.049 2.026-0.081 2.793-1.311 5.242-1.311s3.138 1.311 5.283 1.271c2.18-0.041 3.562-1.981 4.897-3.931 1.543-2.255 2.179-4.439 2.216-4.551-0.048-0.022-4.252-1.632-4.294-6.473zM20.705 5.11c1.117-1.355 1.871-3.235 1.665-5.11-1.609 0.066-3.559 1.072-4.713 2.423-1.036 1.199-1.942 3.113-1.699 4.951 1.796 0.14 3.629-0.913 4.747-2.264z"></path>
</symbol>
<symbol id="arrow-right" viewBox="0 0 32 32">
<path fill="#fff" style="fill: var(--color2, #fff)" d="M9.6 24l8-8-8-8 1.6-3.2 11.2 11.2-11.2 11.2-1.6-3.2z"></path>
</symbol>
<symbol id="linkedin" viewBox="0 0 32 32">
<path d="M8.268 28h-5.805v-18.694h5.805v18.694zM5.362 6.756c-1.856 0-3.362-1.538-3.362-3.394 0-0.892 0.354-1.747 0.985-2.377s1.486-0.985 2.377-0.985c0.892 0 1.747 0.354 2.377 0.985s0.985 1.486 0.985 2.377c0 1.856-1.506 3.394-3.362 3.394zM29.994 28h-5.792v-9.1c0-2.169-0.044-4.95-3.018-4.95-3.018 0-3.481 2.356-3.481 4.794v9.256h-5.799v-18.694h5.567v2.55h0.081c0.775-1.469 2.668-3.019 5.492-3.019 5.875 0 6.955 3.869 6.955 8.894v10.269h-0.005z"></path>
</symbol>
<symbol id="twitter" viewBox="0 0 32 32">
<path d="M30.134 5.599c-1.184 0.835-2.495 1.474-3.882 1.892-0.744-0.856-1.734-1.463-2.835-1.738s-2.26-0.206-3.32 0.198c-1.060 0.405-1.97 1.125-2.608 2.064s-0.971 2.051-0.956 3.185v1.236c-2.173 0.056-4.326-0.426-6.267-1.403s-3.611-2.419-4.86-4.198c0 0-4.945 11.127 6.182 16.073-2.546 1.728-5.58 2.595-8.655 2.473 11.127 6.182 24.727 0 24.727-14.218-0.001-0.344-0.034-0.688-0.099-1.026 1.262-1.244 2.152-2.816 2.572-4.537z"></path>
<path d="M30.134 5.599c-1.184 0.835-2.495 1.474-3.882 1.892-0.744-0.856-1.734-1.463-2.835-1.738s-2.26-0.206-3.32 0.198c-1.060 0.405-1.97 1.125-2.608 2.064s-0.971 2.051-0.956 3.185v1.236c-2.173 0.056-4.326-0.426-6.267-1.403s-3.611-2.419-4.86-4.198c0 0-4.945 11.127 6.182 16.073-2.546 1.728-5.58 2.595-8.655 2.473 11.127 6.182 24.727 0 24.727-14.218-0.001-0.344-0.034-0.688-0.099-1.026 1.262-1.244 2.152-2.816 2.572-4.537z"></path>
</symbol>
<symbol id="facebook" viewBox="0 0 32 32">
<path d="M22.4 2.667h-4c-1.768 0-3.464 0.702-4.714 1.953s-1.953 2.946-1.953 4.714v4h-4v5.333h4v10.667h5.333v-10.667h4l1.333-5.333h-5.333v-4c0-0.354 0.14-0.693 0.391-0.943s0.589-0.391 0.943-0.391h4v-5.333z"></path>
</symbol>
<symbol id="test" viewBox="0 0 32 32">
<path stroke-linejoin="miter" stroke-linecap="butt" stroke-miterlimit="4" stroke-width="0.8" d="M31.6 16c0 8.616-6.984 15.6-15.6 15.6s-15.6-6.984-15.6-15.6c0-8.616 6.984-15.6 15.6-15.6s15.6 6.984 15.6 15.6z"></path>
<path stroke-linejoin="miter" stroke-linecap="butt" stroke-miterlimit="4" stroke-width="0.8" d="M22.6 16.866v4.734h-2.099v-4.15c0-0.525-0-1.224-0.225-1.792-0.117-0.295-0.301-0.574-0.592-0.777s-0.656-0.306-1.092-0.306c-0.429 0-0.797 0.084-1.102 0.253-0.308 0.17-0.529 0.414-0.684 0.695-0.299 0.543-0.354 1.232-0.354 1.849v4.228h-2.1v-8.547h1.984v1.275h0.682l0.113-0.213c0.322-0.61 1.136-1.296 2.392-1.296 1.37 0 2.091 0.442 2.502 1.094 0.437 0.694 0.576 1.705 0.576 2.953zM11.734 21.6h-2.102v-8.547h2.102v8.547zM10.681 10.978c-0.702 0-1.281-0.585-1.281-1.297 0-0.34 0.135-0.666 0.375-0.906s0.566-0.375 0.906-0.375c0.34 0 0.666 0.135 0.906 0.375s0.375 0.566 0.375 0.906c0 0.712-0.579 1.297-1.281 1.297z"></path>
<path d="M22.4 2.667h-4c-1.768 0-3.464 0.702-4.714 1.953s-1.953 2.946-1.953 4.714v4h-4v5.333h4v10.667h5.333v-10.667h4l1.333-5.333h-5.333v-4c0-0.354 0.14-0.693 0.391-0.943s0.589-0.391 0.943-0.391h4v-5.333z"></path>
</symbol>
</defs>
</svg>
