<svg aria-hidden="true" style="position: absolute; width: 0; height: 0; overflow: hidden;" version="1.1" xmlns="http://www.w3.org/2000/svg" xmlns:xlink="http://www.w3.org/1999/xlink">
<defs>
<symbol id="android" viewBox="0 0 32 32">
<path fill="#000" style="fill: var(--color1, #000)" d="M32 16c0 8.837-7.163 16-16 16s-16-7.163-16-16c0-8.837 7.163-16 16-16s16 7.163 16 16z"></path>
<path fill="#fff" style="fill: var(--color2, #fff)" d="M10.623 20.922c0 0.501 0.425 0.911 0.947 0.911h1.082v2.58c0 0.654 0.545 1.187 1.214 1.187 0.671 0 1.214-0.531 1.214-1.187v-2.582h1.889v2.58c0 0.654 0.545 1.187 1.214 1.187 0.671 0 1.214-0.531 1.214-1.187v-2.58h1.082c0.522 0 0.947-0.409 0.947-0.911v-8.468h-10.803v8.47zM18.561 8.064l0.998-1.393c0.058-0.081 0.044-0.191-0.033-0.244-0.078-0.051-0.189-0.026-0.247 0.056l-1.036 1.448c-0.682-0.259-1.443-0.403-2.241-0.403s-1.558 0.144-2.241 0.403l-1.036-1.446c-0.058-0.081-0.169-0.109-0.247-0.056-0.078 0.051-0.091 0.159-0.033 0.244l0.998 1.393c-1.587 0.711-2.698 2.059-2.841 3.634h10.803c-0.147-1.577-1.26-2.925-2.845-3.636zM13.722 10.26c-0.118 0-0.234-0.034-0.332-0.097s-0.175-0.153-0.22-0.259c-0.045-0.105-0.057-0.221-0.034-0.333s0.080-0.214 0.164-0.295c0.084-0.081 0.19-0.136 0.306-0.158s0.236-0.011 0.345 0.033c0.109 0.044 0.203 0.117 0.268 0.212s0.101 0.206 0.101 0.32c-0 0.153-0.064 0.299-0.176 0.407s-0.264 0.169-0.422 0.169zM18.354 10.26c-0.118 0-0.234-0.034-0.332-0.097s-0.175-0.153-0.22-0.259c-0.045-0.105-0.057-0.221-0.034-0.333s0.080-0.214 0.164-0.295c0.084-0.081 0.19-0.136 0.306-0.158s0.236-0.011 0.346 0.033c0.109 0.044 0.203 0.117 0.268 0.212s0.101 0.206 0.101 0.32c-0 0.153-0.064 0.299-0.176 0.407s-0.264 0.169-0.422 0.169zM23.32 12.418c-0.671 0-1.214 0.531-1.214 1.187v4.637c0 0.654 0.545 1.187 1.214 1.187 0.671 0 1.214-0.531 1.214-1.187v-4.639c0.002-0.656-0.54-1.185-1.214-1.185zM8.68 12.418c-0.671 0-1.214 0.531-1.214 1.187v4.637c0 0.654 0.545 1.187 1.214 1.187 0.671 0 1.214-0.531 1.214-1.187v-4.639c0-0.656-0.545-1.185-1.214-1.185z"></path>
</symbol>
<symbol id="apple" viewBox="0 0 32 32">
<path fill="#000" style="fill: var(--color1, #000)" d="M32 16c0 8.837-7.163 16-16 16s-16-7.163-16-16c0-8.837 7.163-16 16-16s16 7.163 16 16z"></path>
<path fill="#fff" style="fill: var(--color2, #fff)" d="M19.884 10.667c-1.68 0-2.39 0.807-3.561 0.807-1.2 0-2.115-0.802-3.571-0.802-1.425 0-2.945 0.876-3.91 2.369-1.355 2.105-1.125 6.069 1.070 9.446 0.785 1.209 1.834 2.565 3.209 2.579h0.025c1.195 0 1.55-0.788 3.195-0.797h0.025c1.62 0 1.945 0.793 3.136 0.793h0.025c1.375-0.015 2.48-1.517 3.265-2.721 0.565-0.866 0.775-1.301 1.209-2.281-3.175-1.214-3.685-5.746-0.545-7.483-0.959-1.208-2.305-1.908-3.575-1.908l0.004-0.002z"></path>
<path fill="#fff" style="fill: var(--color2, #fff)" d="M19.699 6.4c-0.967 0.065-2.096 0.67-2.757 1.459-0.6 0.716-1.093 1.778-0.9 2.807h0.077c1.030 0 2.085-0.609 2.7-1.39 0.593-0.743 1.043-1.796 0.879-2.877z"></path>
</symbol>
<symbol id="arrow-right" viewBox="0 0 32 32">
<path fill="#fff" style="fill: var(--color2, #fff)" d="M9.6 24l8-8-8-8 1.6-3.2 11.2 11.2-11.2 11.2-1.6-3.2z"></path>
</symbol>
<symbol id="linkedin" viewBox="0 0 32 32">
<path d="M8.268 28h-5.805v-18.694h5.805v18.694zM5.362 6.756c-1.856 0-3.362-1.538-3.362-3.394 0-0.892 0.354-1.747 0.985-2.377s1.486-0.985 2.377-0.985c0.892 0 1.747 0.354 2.377 0.985s0.985 1.486 0.985 2.377c0 1.856-1.506 3.394-3.362 3.394zM29.994 28h-5.792v-9.1c0-2.169-0.044-4.95-3.018-4.95-3.018 0-3.481 2.356-3.481 4.794v9.256h-5.799v-18.694h5.567v2.55h0.081c0.775-1.469 2.668-3.019 5.492-3.019 5.875 0 6.955 3.869 6.955 8.894v10.269h-0.005z"></path>
</symbol>
<symbol id="twitter" viewBox="0 0 32 32">
<path d="M30 7.568c-0.383 0.574-0.818 1.112-1.3 1.606-0.484 0.498-1.010 0.953-1.572 1.36 0.018 0.251 0.027 0.502 0.028 0.754 0 1.148-0.122 2.282-0.368 3.404-0.245 1.118-0.603 2.208-1.068 3.254-0.644 1.473-1.495 2.847-2.528 4.080-0.99 1.179-2.149 2.204-3.44 3.042-1.296 0.836-2.708 1.476-4.19 1.9-1.547 0.443-3.149 0.664-4.758 0.658-1.552 0.002-3.096-0.217-4.586-0.65-1.493-0.435-2.915-1.087-4.218-1.936 1.504 0.182 3.030 0.065 4.489-0.343s2.824-1.1 4.015-2.037c-0.891-0.012-1.767-0.234-2.557-0.648s-1.471-1.007-1.989-1.732c-0.353-0.488-0.628-1.027-0.814-1.6 0.182 0.028 0.362 0.052 0.54 0.070 0.686 0.067 1.379 0.007 2.044-0.178-0.655-0.129-1.283-0.374-1.852-0.724-0.552-0.339-1.044-0.767-1.456-1.266-0.847-1.025-1.307-2.315-1.3-3.644v-0.066c0.804 0.454 1.674 0.696 2.612 0.724-0.782-0.533-1.424-1.246-1.872-2.080-0.219-0.411-0.389-0.847-0.506-1.298-0.238-0.955-0.233-1.954 0.014-2.906 0.126-0.486 0.322-0.948 0.588-1.386 0.728 0.902 1.54 1.712 2.432 2.426 1.773 1.422 3.821 2.46 6.016 3.050 1.108 0.297 2.244 0.473 3.39 0.526-0.055-0.213-0.094-0.431-0.116-0.65s-0.034-0.441-0.034-0.662c0-0.794 0.15-1.54 0.452-2.236 0.586-1.375 1.681-2.47 3.056-3.056 0.706-0.302 1.466-0.455 2.234-0.45 0.787-0.004 1.567 0.156 2.29 0.469s1.372 0.772 1.908 1.349c1.283-0.253 2.513-0.726 3.636-1.396-0.416 1.333-1.313 2.463-2.516 3.172 1.137-0.132 2.249-0.435 3.296-0.898v-0.002z"></path>
</symbol>
<symbol id="facebook" viewBox="0 0 32 32">
<path d="M24 3.416c0-0.196-0.077-0.385-0.213-0.524s-0.321-0.217-0.514-0.217h-3.636c-1.831-0.093-3.624 0.556-4.987 1.805s-2.185 2.996-2.286 4.86v3.999h-3.636c-0.193 0-0.378 0.078-0.514 0.217s-0.213 0.327-0.213 0.524v3.851c0 0.196 0.077 0.385 0.213 0.524s0.321 0.217 0.514 0.217h3.636v9.923c0 0.196 0.077 0.385 0.213 0.524s0.321 0.217 0.514 0.217h4.364c0.193 0 0.378-0.078 0.514-0.217s0.213-0.327 0.213-0.524v-9.923h3.811c0.162 0.002 0.32-0.050 0.449-0.149s0.222-0.24 0.264-0.398l1.047-3.851c0.029-0.109 0.033-0.224 0.011-0.335s-0.068-0.216-0.135-0.306c-0.067-0.090-0.154-0.163-0.254-0.214s-0.209-0.077-0.32-0.078h-4.873v-3.999c0.036-0.367 0.205-0.706 0.474-0.953s0.619-0.382 0.98-0.38h3.636c0.193 0 0.378-0.078 0.514-0.217s0.213-0.327 0.213-0.524v-3.851z"></path>
</symbol>
</defs>
</svg>
