<svg aria-hidden="true" style="position: absolute; width: 0; height: 0; overflow: hidden;" version="1.1" xmlns="http://www.w3.org/2000/svg" xmlns:xlink="http://www.w3.org/1999/xlink">
<defs>
<symbol id="android" viewBox="0 0 32 32">
<path fill="#000" style="fill: var(--color1, #000)" d="M32 16c0 8.837-7.163 16-16 16s-16-7.163-16-16c0-8.837 7.163-16 16-16s16 7.163 16 16z"></path>
<path fill="#fff" style="fill: var(--color2, #fff)" d="M10.623 20.922c0 0.501 0.425 0.911 0.947 0.911h1.082v2.58c0 0.654 0.545 1.187 1.214 1.187 0.671 0 1.214-0.531 1.214-1.187v-2.582h1.889v2.58c0 0.654 0.545 1.187 1.214 1.187 0.671 0 1.214-0.531 1.214-1.187v-2.58h1.082c0.522 0 0.947-0.409 0.947-0.911v-8.468h-10.803v8.47zM18.561 8.064l0.998-1.393c0.058-0.081 0.044-0.191-0.033-0.244-0.078-0.051-0.189-0.026-0.247 0.056l-1.036 1.448c-0.682-0.259-1.443-0.403-2.241-0.403s-1.558 0.144-2.241 0.403l-1.036-1.446c-0.058-0.081-0.169-0.109-0.247-0.056-0.078 0.051-0.091 0.159-0.033 0.244l0.998 1.393c-1.587 0.711-2.698 2.059-2.841 3.634h10.803c-0.147-1.577-1.26-2.925-2.845-3.636zM13.722 10.26c-0.118 0-0.234-0.034-0.332-0.097s-0.175-0.153-0.22-0.259c-0.045-0.105-0.057-0.221-0.034-0.333s0.080-0.214 0.164-0.295c0.084-0.081 0.19-0.136 0.306-0.158s0.236-0.011 0.345 0.033c0.109 0.044 0.203 0.117 0.268 0.212s0.101 0.206 0.101 0.32c-0 0.153-0.064 0.299-0.176 0.407s-0.264 0.169-0.422 0.169zM18.354 10.26c-0.118 0-0.234-0.034-0.332-0.097s-0.175-0.153-0.22-0.259c-0.045-0.105-0.057-0.221-0.034-0.333s0.080-0.214 0.164-0.295c0.084-0.081 0.19-0.136 0.306-0.158s0.236-0.011 0.346 0.033c0.109 0.044 0.203 0.117 0.268 0.212s0.101 0.206 0.101 0.32c-0 0.153-0.064 0.299-0.176 0.407s-0.264 0.169-0.422 0.169zM23.32 12.418c-0.671 0-1.214 0.531-1.214 1.187v4.637c0 0.654 0.545 1.187 1.214 1.187 0.671 0 1.214-0.531 1.214-1.187v-4.639c0.002-0.656-0.54-1.185-1.214-1.185zM8.68 12.418c-0.671 0-1.214 0.531-1.214 1.187v4.637c0 0.654 0.545 1.187 1.214 1.187 0.671 0 1.214-0.531 1.214-1.187v-4.639c0-0.656-0.545-1.185-1.214-1.185z"></path>
</symbol>
<symbol id="apple" viewBox="0 0 32 32">
<path fill="#000" style="fill: var(--color1, #000)" d="M32 16c0 8.837-7.163 16-16 16s-16-7.163-16-16c0-8.837 7.163-16 16-16s16 7.163 16 16z"></path>
<path fill="#fff" style="fill: var(--color2, #fff)" d="M19.884 10.667c-1.68 0-2.39 0.807-3.561 0.807-1.2 0-2.115-0.802-3.571-0.802-1.425 0-2.945 0.876-3.91 2.369-1.355 2.105-1.125 6.069 1.070 9.446 0.785 1.209 1.834 2.565 3.209 2.579h0.025c1.195 0 1.55-0.788 3.195-0.797h0.025c1.62 0 1.945 0.793 3.136 0.793h0.025c1.375-0.015 2.48-1.517 3.265-2.721 0.565-0.866 0.775-1.301 1.209-2.281-3.175-1.214-3.685-5.746-0.545-7.483-0.959-1.208-2.305-1.908-3.575-1.908l0.004-0.002z"></path>
<path fill="#fff" style="fill: var(--color2, #fff)" d="M19.699 6.4c-0.967 0.065-2.096 0.67-2.757 1.459-0.6 0.716-1.093 1.778-0.9 2.807h0.077c1.030 0 2.085-0.609 2.7-1.39 0.593-0.743 1.043-1.796 0.879-2.877z"></path>
</symbol>
<symbol id="arrow-right" viewBox="0 0 32 32">
<path fill="#fff" style="fill: var(--color2, #fff)" d="M9.6 24l8-8-8-8 1.6-3.2 11.2 11.2-11.2 11.2-1.6-3.2z"></path>
</symbol>
<symbol id="linkedin" viewBox="0 0 32 32">
<path fill="#000" style="fill: var(--color1, #000)" d="M32 16c0 8.837-7.163 16-16 16s-16-7.163-16-16c0-8.837 7.163-16 16-16s16 7.163 16 16z"></path>
<path fill="#fff" style="fill: var(--color2, #fff)" d="M12.134 22h-2.902v-9.347h2.902v9.347zM10.681 11.378c-0.928 0-1.681-0.769-1.681-1.697 0-0.446 0.177-0.873 0.492-1.189s0.743-0.492 1.189-0.492c0.446 0 0.873 0.177 1.189 0.492s0.492 0.743 0.492 1.189c0 0.928-0.753 1.697-1.681 1.697zM22.997 22h-2.896v-4.55c0-1.084-0.022-2.475-1.509-2.475-1.509 0-1.74 1.178-1.74 2.397v4.628h-2.9v-9.347h2.784v1.275h0.040c0.388-0.734 1.334-1.51 2.746-1.51 2.938 0 3.478 1.935 3.478 4.447v5.134h-0.003z"></path>
</symbol>
<symbol id="twitter" viewBox="0 0 32 32">
<path fill="#000" style="fill: var(--color1, #000)" d="M32 16c0 8.837-7.163 16-16 16s-16-7.163-16-16c0-8.837 7.163-16 16-16s16 7.163 16 16z"></path>
<path fill="#fff" style="fill: var(--color2, #fff)" d="M23 11.784c-0.192 0.287-0.409 0.556-0.65 0.803-0.242 0.249-0.505 0.476-0.786 0.68 0.009 0.126 0.014 0.251 0.014 0.377 0 0.574-0.061 1.141-0.184 1.702-0.123 0.559-0.301 1.104-0.534 1.627-0.322 0.737-0.748 1.424-1.264 2.040-0.495 0.589-1.074 1.102-1.72 1.521-0.648 0.418-1.354 0.738-2.095 0.95-0.773 0.221-1.574 0.332-2.379 0.329-0.776 0.001-1.548-0.108-2.293-0.325-0.747-0.217-1.457-0.544-2.109-0.968 0.752 0.091 1.515 0.033 2.244-0.172s1.412-0.55 2.008-1.018c-0.446-0.006-0.884-0.117-1.278-0.324s-0.736-0.503-0.995-0.866c-0.177-0.244-0.314-0.514-0.407-0.8 0.091 0.014 0.181 0.026 0.27 0.035 0.343 0.034 0.69 0.003 1.022-0.089-0.328-0.065-0.641-0.187-0.926-0.362-0.276-0.17-0.522-0.383-0.728-0.633-0.423-0.512-0.653-1.157-0.65-1.822v-0.033c0.402 0.227 0.837 0.348 1.306 0.362-0.391-0.266-0.712-0.623-0.936-1.040-0.11-0.206-0.195-0.423-0.253-0.649-0.119-0.477-0.117-0.977 0.007-1.453 0.063-0.243 0.161-0.474 0.294-0.693 0.364 0.451 0.77 0.856 1.216 1.213 0.886 0.711 1.911 1.23 3.008 1.525 0.554 0.148 1.122 0.237 1.695 0.263-0.028-0.107-0.047-0.215-0.058-0.325s-0.017-0.22-0.017-0.331c0-0.397 0.075-0.77 0.226-1.118 0.293-0.688 0.84-1.235 1.528-1.528 0.353-0.151 0.733-0.228 1.117-0.225 0.394-0.002 0.784 0.078 1.145 0.234s0.686 0.386 0.954 0.675c0.642-0.127 1.257-0.363 1.818-0.698-0.208 0.666-0.656 1.232-1.258 1.586 0.569-0.066 1.124-0.218 1.648-0.449v-0.001z"></path>
</symbol>
<symbol id="facebook" viewBox="0 0 32 32">
<path fill="#000" style="fill: var(--color1, #000)" d="M32 16c0 8.837-7.163 16-16 16s-16-7.163-16-16c0-8.837 7.163-16 16-16s16 7.163 16 16z"></path>
<path fill="#fff" style="fill: var(--color2, #fff)" d="M20 9.708c0-0.098-0.038-0.192-0.106-0.262s-0.161-0.108-0.257-0.108h-1.818c-0.916-0.046-1.812 0.278-2.493 0.902s-1.092 1.498-1.143 2.43v1.999h-1.818c-0.096 0-0.189 0.039-0.257 0.108s-0.106 0.164-0.106 0.262v1.925c0 0.098 0.038 0.192 0.106 0.262s0.161 0.108 0.257 0.108h1.818v4.961c0 0.098 0.038 0.192 0.106 0.262s0.161 0.108 0.257 0.108h2.182c0.096 0 0.189-0.039 0.257-0.108s0.106-0.164 0.106-0.262v-4.961h1.906c0.081 0.001 0.16-0.025 0.224-0.075s0.111-0.12 0.132-0.199l0.524-1.925c0.014-0.055 0.016-0.112 0.006-0.168s-0.034-0.108-0.068-0.153c-0.034-0.045-0.077-0.082-0.127-0.107s-0.105-0.039-0.16-0.039h-2.436v-1.999c0.018-0.183 0.103-0.353 0.237-0.476s0.309-0.191 0.49-0.19h1.818c0.096 0 0.189-0.039 0.257-0.108s0.106-0.164 0.106-0.262v-1.925z"></path>
</symbol>
</defs>
</svg>
