<svg width="40" height="40" viewBox="0 0 40 40" fill="none" xmlns="http://www.w3.org/2000/svg">
<circle cx="20" cy="20" r="20" fill="url(#paint0_linear_1282_22)"/>
<path d="M28.75 14.73C28.5105 15.0888 28.2385 15.4247 27.9375 15.7337C27.635 16.0447 27.3062 16.3291 26.955 16.5837C26.9663 16.7406 26.9721 16.8977 26.9725 17.055C26.9725 17.7725 26.8962 18.4812 26.7425 19.1825C26.5893 19.8812 26.3657 20.5626 26.075 21.2162C25.6724 22.1371 25.1404 22.9958 24.495 23.7662C23.8765 24.503 23.1519 25.1437 22.345 25.6675C21.5353 26.19 20.6528 26.5901 19.7262 26.855C18.7594 27.1317 17.7582 27.2702 16.7525 27.2662C15.7826 27.2675 14.8176 27.1307 13.8863 26.86C12.9529 26.5882 12.0646 26.1805 11.25 25.65C12.1902 25.7636 13.1436 25.6908 14.0556 25.4355C14.9677 25.1803 15.8204 24.7477 16.565 24.1625C16.0079 24.1547 15.4605 24.016 14.967 23.7576C14.4734 23.4992 14.0475 23.1283 13.7238 22.675C13.5029 22.3703 13.3312 22.0329 13.215 21.675C13.3288 21.6925 13.4413 21.7075 13.5525 21.7187C13.9816 21.7607 14.4147 21.723 14.83 21.6075C14.4203 21.5267 14.0283 21.3735 13.6725 21.155C13.3277 20.9431 13.0202 20.6758 12.7625 20.3637C12.2334 19.7231 11.9459 18.9171 11.95 18.0862V18.045C12.4525 18.3287 12.9962 18.48 13.5825 18.4975C13.0937 18.1645 12.6923 17.7186 12.4125 17.1975C12.2755 16.9405 12.1693 16.6682 12.0963 16.3862C11.9474 15.7896 11.9504 15.1652 12.105 14.57C12.1838 14.2662 12.3063 13.9775 12.4725 13.7037C12.9275 14.2675 13.435 14.7737 13.9925 15.22C15.1005 16.1086 16.3808 16.7577 17.7525 17.1262C18.4449 17.3118 19.1552 17.422 19.8713 17.455C19.8367 17.3216 19.8125 17.1858 19.7987 17.0487C19.7847 16.9113 19.7776 16.7732 19.7775 16.635C19.7775 16.1387 19.8713 15.6725 20.06 15.2375C20.426 14.3779 21.1105 13.6934 21.97 13.3275C22.4111 13.1387 22.8864 13.0429 23.3663 13.0462C23.8584 13.0438 24.3457 13.1436 24.7973 13.3392C25.2489 13.5347 25.655 13.8219 25.99 14.1825C26.7919 14.0242 27.5607 13.729 28.2625 13.31C28.0023 14.1429 27.4419 14.8495 26.69 15.2925C27.4009 15.2098 28.0954 15.0206 28.75 14.7312V14.73Z" fill="white"/>
<defs>
<linearGradient id="paint0_linear_1282_22" x1="-0.796875" y1="14.4443" x2="35.7839" y2="14.4619" gradientUnits="userSpaceOnUse">
<stop stop-color="#00C5EB"/>
<stop offset="1" stop-color="#B544FE"/>
</linearGradient>
</defs>
</svg>
