<svg width="40" height="40" viewBox="0 0 40 40" fill="none" xmlns="http://www.w3.org/2000/svg">
<circle cx="20" cy="20" r="20" fill="url(#paint0_linear_1282_18)"/>
<path d="M25 12.1349C25 12.0122 24.9521 11.8944 24.8669 11.8077C24.7816 11.7209 24.666 11.6721 24.5455 11.6721H22.2727C21.1283 11.6141 20.0078 12.0196 19.1561 12.8C18.3044 13.5805 17.7907 14.6725 17.7273 15.8374V18.3366H15.4545C15.334 18.3366 15.2184 18.3853 15.1331 18.4721C15.0479 18.5589 15 18.6766 15 18.7994V21.206C15 21.3287 15.0479 21.4465 15.1331 21.5333C15.2184 21.6201 15.334 21.6688 15.4545 21.6688H17.7273V27.8705C17.7273 27.9932 17.7752 28.1109 17.8604 28.1977C17.9456 28.2845 18.0613 28.3333 18.1818 28.3333H20.9091C21.0296 28.3333 21.1453 28.2845 21.2305 28.1977C21.3157 28.1109 21.3636 27.9932 21.3636 27.8705V21.6688H23.7455C23.8465 21.6703 23.9452 21.6374 24.0259 21.5754C24.1066 21.5134 24.1646 21.4257 24.1909 21.3263L24.8455 18.9197C24.8635 18.8513 24.866 18.7796 24.8526 18.7101C24.8392 18.6407 24.8103 18.5752 24.7681 18.5189C24.726 18.4626 24.6717 18.4168 24.6094 18.3852C24.5472 18.3536 24.4786 18.337 24.4091 18.3366H21.3636V15.8374C21.3862 15.6083 21.4919 15.396 21.66 15.2419C21.8281 15.0879 22.0466 15.0032 22.2727 15.0043H24.5455C24.666 15.0043 24.7816 14.9556 24.8669 14.8688C24.9521 14.782 25 14.6643 25 14.5415V12.1349Z" fill="white"/>
<defs>
<linearGradient id="paint0_linear_1282_18" x1="-0.796875" y1="14.4443" x2="35.7839" y2="14.4619" gradientUnits="userSpaceOnUse">
<stop stop-color="#00C5EB"/>
<stop offset="1" stop-color="#B544FE"/>
</linearGradient>
</defs>
</svg>
